<svg fill="none" height="287" viewBox="0 0 173 287" width="173" xmlns="http://www.w3.org/2000/svg"><path d="m1.1609.716342c-.573542.573538-.245805 1.351908 1.59771 3.605098 1.02418 1.26998 1.84352 2.33512 1.76159 2.37609-.08194.04097-.90128.45064-1.80255.90128-2.826732 1.43384-2.6628632 2.08932 3.44123 14.54329 7.70182 15.7723 13.51912 29.5782 20.27872 48.1363 5.0389 13.724 5.9402 16.0181 6.7595 16.7965.7784.6555.8194.6145 1.5158-.4097.6555-1.0242.6145-1.3929-2.2532-13.642-6.8824-29.3324-11.4707-43.1383-19.1316-57.7636-1.4338-2.7447-2.6219-5.1208-2.6219-5.2028 0-.81931 2.9087.8603 14.2566 8.2344 30.5614 19.869 42.4828 29.0047 55.7971 42.6057 23.1871 23.72 41.7451 50.9631 59.6071 87.5471 14.707 30.11 24.293 56.165 28.267 76.895 2.294 12.126 2.376 13.068 2.54 38.263.205 27.325.738 30.848 1.434 9.013.86-28.554-.082-40.558-4.629-59.157-6.719-27.325-26.301-71.569-45.638-103.032-11.839-19.3363-25.2762-36.5835-40.3521-51.9871-8.3163-8.5211-13.4372-12.9456-23.9657-20.8522-6.1861-4.6293-30.0289-20.8522-40.5984-27.6118-2.1303-1.35192 20.8113 1.5567 41.2538 5.2028 5.5306.9832 11.3889 1.1471 11.8805.3687.5735-.9013.4506-1.3109-.8603-2.7448-1.3929-1.4748-1.6387-1.5977-1.6387-.6555 0 .4507-.2048.5736-.6964.3688-2.1713-.8604-20.1968-3.93288-36.3788-6.18607-2.7448-.36871-8.3573-.73741-12.7407-.77838l-7.8247-.1229-3.56418-2.49899c-3.2364-2.294153-4.99798-2.9496255-5.69442-2.212218zm10.1189 17.738758c3.687 7.2511 6.8824 15.1168 9.6272 23.3512 1.8026 5.5305 5.4077 18.5171 5.2028 18.7219-.0819.082-.7374-1.4748-1.4748-3.4412-4.1786-11.0201-11.184-26.7515-18.39419-41.4996l-2.13028-4.3016 1.35191-.4506c1.72061-.6145 1.59771-.8193 5.81736 7.6199z" fill="#000"/></svg>